HIERARCHY
ROOT Hips
{
	OFFSET	0.00	0.00	0.00
	CHANNELS 6 Xposition Yposition Zposition Zrotation Xrotation Yrotation
	JOINT LeftUpLeg
	{
		OFFSET	 0.126116	-0.014019	-0.065224
		CHANNELS 3 Zrotation Xrotation Yrotation
		JOINT LeftLeg
		{
			OFFSET	 0.000000	 0.000000	 0.569914
			CHANNELS 3 Zrotation Xrotation Yrotation
			JOINT LeftFoot
			{
				OFFSET	 0.000000	 0.000000	 0.544423
				CHANNELS 3 Zrotation Xrotation Yrotation
				JOINT LeftToeBase
				{
					OFFSET	 0.000000	 0.000000	 0.207117
					CHANNELS 3 Zrotation Xrotation Yrotation
					End Site
					{
						OFFSET	 0.000000	 0.000000	 0.207117
					}
				}
			}
		}
	}
	JOINT RightUpLeg
	{
		OFFSET	-0.124023	-0.008373	-0.065224
		CHANNELS 3 Zrotation Xrotation Yrotation
		JOINT RightLeg
		{
			OFFSET	 0.000000	 0.000000	 0.570047
			CHANNELS 3 Zrotation Xrotation Yrotation
			JOINT RightFoot
			{
				OFFSET	 0.000000	 0.000000	 0.544354
				CHANNELS 3 Zrotation Xrotation Yrotation
				JOINT RightToeBase
				{
					OFFSET	 0.000000	 0.000000	 0.207540
					CHANNELS 3 Zrotation Xrotation Yrotation
					End Site
					{
						OFFSET	 0.000000	 0.000000	 0.207540
					}
				}
			}
		}
	}
	JOINT Spine
	{
		OFFSET	 0.000184	-0.007763	 0.117403
		CHANNELS 3 Zrotation Xrotation Yrotation
		JOINT Spine1
		{
			OFFSET	 0.000000	 0.000000	 0.137269
			CHANNELS 3 Zrotation Xrotation Yrotation
			JOINT Spine2
			{
				OFFSET	 0.000000	 0.000000	 0.156879
				CHANNELS 3 Zrotation Xrotation Yrotation
				JOINT LeftShoulder
				{
					OFFSET	 0.080501	-0.002496	 0.160144
					CHANNELS 3 Zrotation Xrotation Yrotation
					JOINT LeftArm
					{
						OFFSET	 0.000000	 0.000000	 0.164363
						CHANNELS 3 Zrotation Xrotation Yrotation
						JOINT LeftForeArm
						{
							OFFSET	 0.000000	 0.000000	 0.364576
							CHANNELS 3 Zrotation Xrotation Yrotation
							JOINT LeftHand
							{
								OFFSET	 0.000000	 0.000000	 0.360812
								CHANNELS 3 Zrotation Xrotation Yrotation
								JOINT LeftHandIndex1
								{
									OFFSET	 0.000000	 0.000000	 0.086006
									CHANNELS 3 Zrotation Xrotation Yrotation
									JOINT LeftHandIndex2
									{
										OFFSET	 0.000000	 0.000000	 0.047236
										CHANNELS 3 Zrotation Xrotation Yrotation
										JOINT LeftHandIndex3
										{
											OFFSET	-0.004284	-0.000551	 0.038166
											CHANNELS 3 Zrotation Xrotation Yrotation
											End Site
											{
												OFFSET	-0.004284	-0.000551	 0.038166
											}
										}
									}
								}
							}
						}
					}
				}
				JOINT Neck
				{
					OFFSET	 0.000000	 0.000000	 0.176489
					CHANNELS 3 Zrotation Xrotation Yrotation
					JOINT Head
					{
						OFFSET	 0.000000	-0.001747	 0.077940
						CHANNELS 3 Zrotation Xrotation Yrotation
						End Site
						{
							OFFSET	 0.000000	-0.001747	 0.077940
						}
					}
				}
				JOINT RightShoulder
				{
					OFFSET	-0.080363	 0.000306	 0.159706
					CHANNELS 3 Zrotation Xrotation Yrotation
					JOINT RightArm
					{
						OFFSET	 0.000000	 0.000000	 0.164196
						CHANNELS 3 Zrotation Xrotation Yrotation
						JOINT RightForeArm
						{
							OFFSET	 0.000000	 0.000000	 0.365611
							CHANNELS 3 Zrotation Xrotation Yrotation
							JOINT RightHand
							{
								OFFSET	 0.000000	 0.000000	 0.360648
								CHANNELS 3 Zrotation Xrotation Yrotation
								JOINT RightHandIndex1
								{
									OFFSET	 0.000000	 0.000000	 0.069977
									CHANNELS 3 Zrotation Xrotation Yrotation
									JOINT RightHandIndex2
									{
										OFFSET	 0.000000	 0.000000	 0.052305
										CHANNELS 3 Zrotation Xrotation Yrotation
										JOINT RightHandIndex3
										{
											OFFSET	 0.009002	-0.000782	 0.042196
											CHANNELS 3 Zrotation Xrotation Yrotation
											End Site
											{
												OFFSET	 0.009002	-0.000782	 0.042196
											}
										}
									}
								}
							}
						}
					}
				}
			}
		}
	}
}
MOTION
Frames:    13
Frame Time: 0.03333334
-0.029251	 0.238548	 1.091815	 2.616644	 32.517170	-8.016751	 38.232780	-74.014900	-146.898500	 4.459346	-62.939890	 4.344289	 29.945750	 71.407100	-37.881210	-2.385832	 28.452790	-0.000001	 31.361460	-78.613340	-146.054500	-13.282020	-66.400430	-7.463329	-0.311674	 70.986060	 20.155600	 2.384659	 28.388700	-0.000001	 22.385260	 13.433970	 0.898062	-1.763501	 16.550870	 1.499872	-3.556827	-0.728993	 3.658024	-99.164990	 68.202070	 156.782900	 4.568057	-7.740240	-50.527450	-0.024664	-0.603550	-5.061251	-1.419592	-33.085220	-6.113137	-2.027600	 6.559038	 9.033609	-5.188889	 0.308190	 3.541030	-5.234859	 0.342567	 0.430617	 0.384097	 17.746390	-6.083197	-2.048055	-28.770970	-1.827191	 97.469230	 64.628910	-159.276700	-12.976940	 7.074703	 56.190790	-14.032650	-4.012661	 31.433760	-15.041610	-30.411610	 2.134369	 1.803333	 3.979147	-15.098590	 4.898592	 3.004813	-9.310344	 5.224449	 0.395017	 2.014677
-0.027174	 0.237266	 1.103162	 2.547134	 31.807760	-7.735460	 35.370630	-72.362210	-149.876000	 4.007494	-61.227590	 3.879627	 29.398030	 70.799550	-37.129170	-2.385832	 28.452790	-0.000001	 24.910430	-77.156920	-152.111000	-12.877840	-64.693030	-6.997303	-0.049207	 70.430090	 19.922630	 2.384659	 28.388700	-0.000001	 20.334660	 13.132630	 0.760588	-1.610066	 16.222320	 1.342724	-3.728952	-1.017802	 3.523525	-99.025250	 68.221820	 157.182200	 4.940751	-6.403524	-50.668060	 1.813750	-0.919220	-5.959835	-1.799379	-29.903660	-7.707718	-2.027600	 6.559038	 9.033609	-5.188889	 0.308190	 3.541030	-5.234859	 0.342567	 0.430617	 0.040526	 15.773490	-5.213349	-2.515830	-26.790700	-2.330066	 97.366740	 64.546530	-159.636300	-13.808310	 7.229026	 54.965510	-14.903420	-5.146355	 34.344620	-14.507610	-27.412270	 4.266536	 1.803333	 3.979147	-15.098590	 4.898592	 3.004813	-9.310344	 5.224449	 0.395017	 2.014677
-0.025355	 0.235894	 1.113307	 2.569116	 31.196820	-7.518118	 33.098940	-70.879410	-152.173800	 3.748185	-59.652260	 3.595674	 28.704050	 70.180990	-36.335290	-2.385832	 28.452790	-0.000001	 20.179810	-75.779900	-156.422000	-12.568950	-63.170320	-6.631176	 0.207611	 69.908160	 19.663850	 2.384659	 28.388700	-0.000001	 18.464910	 12.837550	 0.650405	-1.471175	 16.014720	 1.187159	-3.905543	-1.335302	 3.392179	-98.784130	 68.467200	 157.558600	 5.270420	-5.062158	-50.969410	 3.383041	-1.222970	-6.697467	-2.241463	-27.553330	-9.072048	-2.027600	 6.559038	 9.033609	-5.188889	 0.308190	 3.541030	-5.234859	 0.342567	 0.430617	-0.218071	 13.672460	-4.695653	-2.808734	-24.683920	-2.544784	 97.244810	 64.344590	-160.151000	-14.605860	 7.113420	 54.071100	-15.571120	-6.216426	 36.896640	-14.254640	-24.938580	 6.031877	 1.803333	 3.979147	-15.098590	 4.898592	 3.004813	-9.310344	 5.224449	 0.395017	 2.014677
-0.023183	 0.234038	 1.125280	 2.596490	 30.491320	-7.261151	 30.816790	-69.088080	-154.493900	 3.475395	-57.757340	 3.293231	 27.904720	 69.453060	-35.391080	-2.385832	 28.452790	-0.000001	 15.633080	-74.057200	-160.479800	-12.243260	-61.339270	-6.234738	 0.495930	 69.280150	 19.385330	 2.384659	 28.388700	-0.000001	 16.180090	 12.475420	 0.524073	-1.310396	 15.697780	 1.038542	-4.115137	-1.666858	 3.225534	-98.506610	 68.753220	 157.996400	 5.658089	-3.494133	-51.286600	 5.154199	-1.609983	-7.517450	-2.843783	-25.175680	-10.520110	-2.027600	 6.559038	 9.033609	-5.188889	 0.308190	 3.541030	-5.234859	 0.342567	 0.430617	-0.491557	 11.233700	-4.113898	-3.119239	-22.241180	-2.760293	 97.099900	 64.110610	-160.745400	-15.548750	 6.985213	 53.015650	-16.203820	-7.527143	 39.866180	-13.914290	-22.388230	 7.904276	 1.803333	 3.979147	-15.098590	 4.898592	 3.004813	-9.310344	 5.224449	 0.395017	 2.014677
-0.021198	 0.232127	 1.136741	 2.579026	 29.752350	-6.969530	 28.891540	-67.283030	-156.527300	 3.248165	-55.938710	 3.037286	 27.140690	 68.795570	-34.478890	-2.385832	 28.452790	-0.000001	 11.849580	-72.275030	-163.812700	-12.006030	-59.552130	-5.920980	 0.765246	 68.694170	 19.112650	 2.384659	 28.388700	-0.000001	 13.823880	 12.112480	 0.418808	-1.187033	 15.497230	 0.929764	-4.315496	-2.130747	 3.028621	-98.100660	 69.295780	 158.456000	 6.100098	-1.757976	-51.678600	 6.861471	-2.018466	-8.277457	-3.612285	-23.341650	-11.964260	-2.027600	 6.559038	 9.033609	-5.188889	 0.308190	 3.541030	-5.234859	 0.342567	 0.430617	-0.718080	 8.431409	-3.500255	-3.440604	-19.471560	-3.020470	 96.930140	 64.121610	-161.183400	-16.464840	 7.296598	 52.070770	-16.900760	-8.976993	 42.580940	-13.563750	-20.189770	 9.414425	 1.803333	 3.979147	-15.098590	 4.898592	 3.004813	-9.310344	 5.224449	 0.395017	 2.014677
-0.019684	 0.230340	 1.146390	 2.535986	 29.077920	-6.706862	 27.426020	-65.685910	-158.128500	 3.077106	-54.398900	 2.841843	 26.440790	 68.270420	-33.647090	-2.385833	 28.452760	 0.000004	 9.020987	-70.672890	-166.265900	-11.846590	-58.021410	-5.690772	 0.931796	 68.199460	 18.936820	 2.384659	 28.388700	-0.000001	 11.692330	 11.800090	 0.351392	-1.083550	 15.372360	 0.867505	-4.492009	-2.595703	 2.831740	-97.688310	 69.883040	 158.870900	 6.504031	-0.158156	-52.086460	 8.324147	-2.396942	-8.909735	-4.418567	-22.125730	-13.179700	-2.027600	 6.559038	 9.033609	-5.188889	 0.308190	 3.541030	-5.234859	 0.342567	 0.430617	-0.883095	 5.800438	-2.949079	-3.714285	-16.885420	-3.251875	 96.771320	 64.231940	-161.508700	-17.238560	 7.747320	 51.321950	-17.493150	-10.326650	 44.811000	-13.185670	-18.574480	 10.534440	 1.803333	 3.979147	-15.098590	 4.898592	 3.004813	-9.310344	 5.224449	 0.395017	 2.014677
-0.018210	 0.228123	 1.157262	 2.462893	 28.273410	-6.406477	 25.923660	-63.814390	-159.819700	 2.928685	-52.643260	 2.660146	 25.543470	 67.702170	-32.614460	-2.385833	 28.452760	 0.000004	 6.171214	-68.775830	-168.691300	-11.711830	-56.259340	-5.467027	 1.019689	 67.631000	 18.841580	 2.384659	 28.388700	-0.000001	 9.160703	 11.448530	 0.306998	-0.934629	 15.251450	 0.804289	-4.698517	-3.158952	 2.598062	-97.124380	 70.736010	 159.348900	 6.972134	 1.827138	-52.726160	 9.991244	-2.859782	-9.610651	-5.545630	-21.156250	-14.452030	-2.027600	 6.559038	 9.033609	-5.188889	 0.308190	 3.541030	-5.234859	 0.342567	 0.430617	-1.043450	 2.668195	-2.418496	-3.978070	-13.812260	-3.404446	 96.526550	 64.523320	-161.912600	-18.086970	 8.425945	 50.645390	-18.095120	-11.939580	 47.269570	-12.562600	-17.210320	 11.631650	 1.803333	 3.979147	-15.098590	 4.898592	 3.004813	-9.310344	 5.224449	 0.395017	 2.014677
-0.016900	 0.225927	 1.168005	 2.362954	 27.443780	-6.071600	 24.587240	-61.927960	-161.400000	 2.893214	-50.889300	 2.569272	 24.581130	 67.159950	-31.590860	-2.385833	 28.452760	 0.000004	 3.600544	-66.827800	-170.853700	-11.668270	-54.458900	-5.314676	 1.066040	 67.079960	 18.813200	 2.384659	 28.388700	-0.000001	 6.620724	 11.114310	 0.286346	-0.739737	 15.233730	 0.665241	-4.887707	-3.806171	 2.412572	-96.241740	 72.190960	 159.779300	 7.487527	 4.240597	-53.828590	 11.625840	-3.337073	-10.263090	-6.964992	-20.716390	-15.547340	-2.027600	 6.559038	 9.033609	-5.188889	 0.308190	 3.541030	-5.234859	 0.342567	 0.430617	-1.184282	-0.644296	-2.277994	-4.130947	-10.578050	-3.219480	 96.062360	 65.412970	-162.398400	-18.879510	 9.690579	 50.526910	-18.678720	-13.623940	 49.542370	-11.638930	-16.677800	 12.394730	 1.803333	 3.979147	-15.098590	 4.898592	 3.004813	-9.310344	 5.224449	 0.395017	 2.014677
-0.015879	 0.223806	 1.177225	 2.275111	 26.726110	-5.790454	 23.561730	-60.266990	-162.647200	 2.868413	-49.351720	 2.493529	 23.702980	 66.690030	-30.650440	-2.385833	 28.452760	 0.000004	 1.657956	-65.100810	-172.442500	-11.637680	-52.877340	-5.183952	 1.051247	 66.585690	 18.855150	 2.384659	 28.388700	-0.000001	 4.411718	 10.820490	 0.283970	-0.552761	 15.171760	 0.563972	-5.056945	-4.340765	 2.241592	-95.445050	 73.457220	 160.117300	 7.946720	 6.339530	-54.828900	 12.991300	-3.758824	-10.794450	-8.374253	-20.746810	-16.421880	-2.027600	 6.559038	 9.033609	-5.188889	 0.308190	 3.541030	-5.234859	 0.342567	 0.430617	-1.299994	-3.512258	-2.165550	-4.264494	-7.781503	-3.043215	 95.661760	 66.185970	-162.820200	-19.553390	 10.776370	 50.437480	-19.066320	-15.092270	 51.496770	-10.682650	-16.640520	 12.950650	 1.803333	 3.979147	-15.098590	 4.898592	 3.004813	-9.310344	 5.224449	 0.395017	 2.014677
-0.014798	 0.221089	 1.187587	 2.217932	 25.825130	-5.443779	 22.394370	-58.295450	-164.073600	 2.911852	-47.617580	 2.459816	 22.634850	 66.138810	-29.544160	-2.385833	 28.452750	 0.000004	-0.394543	-62.999690	-174.068200	-11.193280	-51.107810	-4.713446	 0.789945	 66.125630	 18.858170	 2.384659	 28.388700	-0.000001	 1.792486	 10.490970	 0.273987	-0.345250	 15.215660	 0.373107	-5.250200	-5.069920	 2.085292	-94.465000	 74.928130	 160.529100	 8.656178	 8.583640	-56.111560	 14.560900	-4.258607	-11.377460	-10.059790	-21.210470	-17.403830	-2.027600	 6.559038	 9.033609	-5.188889	 0.308190	 3.541030	-5.234859	 0.342567	 0.430617	-1.432979	-7.187669	-2.285728	-4.405105	-4.253397	-2.670124	 95.186500	 67.135280	-163.411600	-20.426690	 11.954240	 50.610900	-19.406670	-16.753700	 53.604990	-9.353837	-17.055180	 13.376490	 1.803333	 3.979147	-15.098590	 4.898592	 3.004813	-9.310344	 5.224449	 0.395017	 2.014677
-0.013883	 0.218295	 1.196973	 2.179535	 24.897180	-5.083090	 21.354470	-56.375630	-165.395900	 2.984642	-46.055170	 2.450265	 21.632830	 65.653270	-28.502160	-2.385833	 28.452750	 0.000004	-2.174193	-60.908540	-175.435500	-10.689580	-49.492420	-4.220232	 0.508007	 65.774400	 18.792840	 2.384659	 28.388700	-0.000001	-0.796662	 10.204050	 0.252650	-0.151461	 15.308610	 0.177929	-5.442861	-5.819106	 1.933621	-93.441000	 76.378300	 160.891800	 9.406258	 10.705140	-57.430320	 16.050770	-4.750865	-11.907350	-11.928780	-22.141050	-18.368250	-2.027600	 6.559038	 9.033609	-5.188889	 0.308190	 3.541030	-5.234859	 0.342567	 0.430617	-1.576821	-10.897610	-2.488405	-4.560475	-0.711015	-2.240203	 94.697280	 68.111970	-163.905400	-21.308490	 13.153260	 50.984090	-19.688840	-18.310200	 55.394090	-7.829812	-17.978090	 13.706950	 1.803333	 3.979147	-15.098590	 4.898592	 3.004813	-9.310344	 5.224449	 0.395017	 2.014677
-0.013084	 0.215578	 1.204701	 2.241924	 24.113240	-4.770953	 20.473730	-54.745900	-166.492500	 2.992903	-44.754620	 2.439098	 20.939660	 65.259780	-27.729250	-2.385833	 28.452750	 0.000004	-3.599044	-59.087630	-176.454600	-10.227840	-48.148720	-3.789567	 0.387796	 65.491820	 18.595320	 2.384659	 28.388700	-0.000001	-3.058460	 9.900195	 0.161867	-0.017246	 15.300730	 0.040766	-5.608809	-6.465324	 1.729966	-93.048270	 76.871210	 161.412100	 10.045030	 12.010740	-58.176800	 17.318370	-5.180109	-12.336320	-13.569150	-23.231600	-19.292070	-2.027600	 6.559038	 9.033609	-5.188889	 0.308190	 3.541030	-5.234859	 0.342567	 0.430617	-1.663975	-13.144460	-2.364114	-4.718904	 1.467933	-2.112989	 94.343570	 68.769170	-164.324800	-22.097050	 14.213420	 51.243060	-19.939490	-19.609100	 56.694170	-6.365759	-19.107260	 13.988660	 1.803333	 3.979147	-15.098590	 4.898592	 3.004813	-9.310344	 5.224449	 0.395017	 2.014677
-0.012014	 0.211538	 1.212887	 2.473754	 23.281190	-4.431557	 19.673690	-52.860320	-167.482200	 3.122382	-43.237870	 2.411928	 20.368090	 64.910780	-26.942880	-2.385833	 28.452750	 0.000004	-5.006056	-56.990070	-177.355800	-9.633114	-46.695810	-3.268317	 0.497165	 65.314750	 18.036850	 2.384659	 28.388700	-0.000001	-5.618756	 9.401268	-0.057645	 0.088670	 15.020260	-0.035838	-5.790562	-7.146644	 1.365837	-93.531510	 76.028830	 162.407600	 10.752680	 12.562000	-58.272340	 18.745880	-5.668930	-12.795470	-15.342120	-24.690380	-20.519080	-2.027600	 6.559038	 9.033609	-5.188889	 0.308190	 3.541030	-5.234859	 0.342567	 0.430617	-1.669251	-13.928230	-1.659679	-4.901909	 2.324287	-2.438253	 94.072540	 69.164780	-164.786800	-23.047300	 15.451990	 51.266620	-20.265670	-21.023580	 57.867830	-4.556320	-20.692980	 14.340240	 1.803333	 3.979147	-15.098590	 4.898592	 3.004813	-9.310344	 5.224449	 0.395017	 2.014677
